<svg xmlns="http://www.w3.org/2000/svg" viewBox="0 0 56.77 56.77"><defs><style>.cls-1{isolation:isolate;}.cls-2{opacity:0.2;mix-blend-mode:multiply;}.cls-3{fill:#fff;}</style></defs><g class="cls-1"><g id="Layer_2" data-name="Layer 2"><g id="white"><g id="white-2" data-name="white"><g id="facebook"><g id="drop_shadow" data-name="drop shadow" class="cls-2"><path d="M28.64.51A28.13,28.13,0,1,0,56.77,28.64,28.14,28.14,0,0,0,28.64.51ZM36.8,17.19H32.85a1.72,1.72,0,0,0-1.57,1.42v4.06h5.51c-.22,3.11-.67,6-.67,6H31.25V46.27H24V28.63H20.48V22.69H24V17.84C24,17,23.83,11,31.43,11H36.8Z"/></g><g id="color"><path class="cls-3" d="M28.13,0A28.13,28.13,0,1,0,56.26,28.13,28.13,28.13,0,0,0,28.13,0Zm8.16,16.68H32.34a1.71,1.71,0,0,0-1.57,1.42v4.06h5.51c-.22,3.11-.68,6-.68,6H30.74V45.76H23.5V28.12H20V22.18H23.5V17.33c0-.89-.18-6.83,7.42-6.83h5.37Z"/></g></g></g></g></g></g></svg>