<svg xmlns="http://www.w3.org/2000/svg" viewBox="0 0 56.77 56.77"><defs><style>.cls-1{isolation:isolate;}.cls-2{opacity:0.2;mix-blend-mode:multiply;}.cls-3{fill:#fff;}</style></defs><g class="cls-1"><g id="Layer_2" data-name="Layer 2"><g id="white"><g id="white-2" data-name="white"><g id="twitter"><g id="drop_shadow" data-name="drop shadow" class="cls-2"><path d="M28.64.51A28.13,28.13,0,1,0,56.77,28.64,28.14,28.14,0,0,0,28.64.51ZM42.38,22.79c0,.29,0,.58,0,.86,0,8.75-6.66,18.85-18.85,18.85a18.73,18.73,0,0,1-10.15-3,13.67,13.67,0,0,0,1.58.1,13.3,13.3,0,0,0,8.23-2.84A6.63,6.63,0,0,1,17,32.18a6.36,6.36,0,0,0,1.24.12A6.72,6.72,0,0,0,20,32.07a6.63,6.63,0,0,1-5.31-6.5v-.08a6.72,6.72,0,0,0,3,.83,6.63,6.63,0,0,1-2-8.85A18.76,18.76,0,0,0,29.3,24.39a6.78,6.78,0,0,1-.17-1.51,6.63,6.63,0,0,1,11.46-4.53,13.27,13.27,0,0,0,4.2-1.61,6.61,6.61,0,0,1-2.91,3.67,13.51,13.51,0,0,0,3.81-1A13.62,13.62,0,0,1,42.38,22.79Z"/></g><g id="color"><path class="cls-3" d="M28.13,0A28.13,28.13,0,1,0,56.26,28.13,28.14,28.14,0,0,0,28.13,0ZM41.87,22.28c0,.29,0,.57,0,.86C41.89,31.89,35.23,42,23,42a18.73,18.73,0,0,1-10.15-3,13.69,13.69,0,0,0,1.58.09,13.35,13.35,0,0,0,8.23-2.83,6.63,6.63,0,0,1-6.19-4.6,6.36,6.36,0,0,0,1.24.12,6.72,6.72,0,0,0,1.75-.23,6.64,6.64,0,0,1-5.32-6.5V25a6.8,6.8,0,0,0,3,.83,6.63,6.63,0,0,1-3-5.52A6.71,6.71,0,0,1,15.13,17a18.79,18.79,0,0,0,13.66,6.92,6.78,6.78,0,0,1-.17-1.51,6.63,6.63,0,0,1,11.46-4.53,13.36,13.36,0,0,0,4.2-1.61,6.61,6.61,0,0,1-2.91,3.67,13.2,13.2,0,0,0,3.81-1A13.5,13.5,0,0,1,41.87,22.28Z"/></g></g></g></g></g></g></svg>